<svg height="7262" width="720" xmlns="http://www.w3.org/2000/svg">
<rect height="7262" fill="#555" width="720"></rect>
<text fill="#7f7" font-family="Courier New" font-size="12" xml:space="preserve">
<tspan x="10" y="26">140 megabytes installed</tspan>
<tspan x="10" y="42"></tspan>
<tspan x="10" y="58">node_modules</tspan>
<tspan x="10" y="74">└─┬ vorlon@0.5.4 </tspan>
<tspan x="10" y="90">  ├─┬ body-parser@1.12.4 </tspan>
<tspan x="10" y="106">  │ ├── bytes@1.0.0 </tspan>
<tspan x="10" y="122">  │ ├── content-type@1.0.2 </tspan>
<tspan x="10" y="138">  │ ├─┬ debug@2.2.0 </tspan>
<tspan x="10" y="154">  │ │ └── ms@0.7.1 </tspan>
<tspan x="10" y="170">  │ ├── depd@1.0.1 </tspan>
<tspan x="10" y="186">  │ ├── iconv-lite@0.4.8 </tspan>
<tspan x="10" y="202">  │ ├─┬ on-finished@2.2.1 </tspan>
<tspan x="10" y="218">  │ │ └── ee-first@1.1.0 </tspan>
<tspan x="10" y="234">  │ ├── qs@2.4.2 </tspan>
<tspan x="10" y="250">  │ ├─┬ raw-body@2.0.2 </tspan>
<tspan x="10" y="266">  │ │ └── bytes@2.1.0 </tspan>
<tspan x="10" y="282">  │ └─┬ type-is@1.6.15 </tspan>
<tspan x="10" y="298">  │   ├── media-typer@0.3.0 </tspan>
<tspan x="10" y="314">  │   └─┬ mime-types@2.1.15 </tspan>
<tspan x="10" y="330">  │     └── mime-db@1.27.0 </tspan>
<tspan x="10" y="346">  ├── colors@1.1.2 </tspan>
<tspan x="10" y="362">  ├─┬ cookie-parser@1.3.5 </tspan>
<tspan x="10" y="378">  │ ├── cookie@0.1.3 </tspan>
<tspan x="10" y="394">  │ └── cookie-signature@1.0.6 </tspan>
<tspan x="10" y="410">  ├── cookieparser@0.1.0 </tspan>
<tspan x="10" y="426">  ├─┬ cors@2.8.3 </tspan>
<tspan x="10" y="442">  │ ├── object-assign@4.1.1 </tspan>
<tspan x="10" y="458">  │ └── vary@1.1.1 </tspan>
<tspan x="10" y="474">  ├─┬ express@4.12.4 </tspan>
<tspan x="10" y="490">  │ ├─┬ accepts@1.2.13 </tspan>
<tspan x="10" y="506">  │ │ └── negotiator@0.5.3 </tspan>
<tspan x="10" y="522">  │ ├── content-disposition@0.5.0 </tspan>
<tspan x="10" y="538">  │ ├── cookie@0.1.2 </tspan>
<tspan x="10" y="554">  │ ├── escape-html@1.0.1 </tspan>
<tspan x="10" y="570">  │ ├─┬ etag@1.6.0 </tspan>
<tspan x="10" y="586">  │ │ └── crc@3.2.1 </tspan>
<tspan x="10" y="602">  │ ├── finalhandler@0.3.6 </tspan>
<tspan x="10" y="618">  │ ├── fresh@0.2.4 </tspan>
<tspan x="10" y="634">  │ ├── merge-descriptors@1.0.0 </tspan>
<tspan x="10" y="650">  │ ├── methods@1.1.2 </tspan>
<tspan x="10" y="666">  │ ├── parseurl@1.3.1 </tspan>
<tspan x="10" y="682">  │ ├── path-to-regexp@0.1.3 </tspan>
<tspan x="10" y="698">  │ ├─┬ proxy-addr@1.0.10 </tspan>
<tspan x="10" y="714">  │ │ ├── forwarded@0.1.0 </tspan>
<tspan x="10" y="730">  │ │ └── ipaddr.js@1.0.5 </tspan>
<tspan x="10" y="746">  │ ├── range-parser@1.0.3 </tspan>
<tspan x="10" y="762">  │ ├─┬ send@0.12.3 </tspan>
<tspan x="10" y="778">  │ │ ├── destroy@1.0.3 </tspan>
<tspan x="10" y="794">  │ │ └── mime@1.3.4 </tspan>
<tspan x="10" y="810">  │ ├── serve-static@1.9.3 </tspan>
<tspan x="10" y="826">  │ ├── utils-merge@1.0.0 </tspan>
<tspan x="10" y="842">  │ └── vary@1.0.1 </tspan>
<tspan x="10" y="858">  ├─┬ express-session@1.11.3 </tspan>
<tspan x="10" y="874">  │ ├── crc@3.3.0 </tspan>
<tspan x="10" y="890">  │ ├── on-headers@1.0.1 </tspan>
<tspan x="10" y="906">  │ └─┬ uid-safe@2.0.0 </tspan>
<tspan x="10" y="922">  │   └── base64-url@1.2.1 </tspan>
<tspan x="10" y="938">  ├─┬ favicon@0.0.2 </tspan>
<tspan x="10" y="954">  │ └─┬ request@2.81.0 </tspan>
<tspan x="10" y="970">  │   ├── aws-sign2@0.6.0 </tspan>
<tspan x="10" y="986">  │   ├── aws4@1.6.0 </tspan>
<tspan x="10" y="1002">  │   ├── caseless@0.12.0 </tspan>
<tspan x="10" y="1018">  │   ├─┬ combined-stream@1.0.5 </tspan>
<tspan x="10" y="1034">  │   │ └── delayed-stream@1.0.0 </tspan>
<tspan x="10" y="1050">  │   ├── extend@3.0.0 </tspan>
<tspan x="10" y="1066">  │   ├── forever-agent@0.6.1 </tspan>
<tspan x="10" y="1082">  │   ├─┬ form-data@2.1.4 </tspan>
<tspan x="10" y="1098">  │   │ └── asynckit@0.4.0 </tspan>
<tspan x="10" y="1114">  │   ├─┬ har-validator@4.2.1 </tspan>
<tspan x="10" y="1130">  │   │ ├─┬ ajv@4.11.7 </tspan>
<tspan x="10" y="1146">  │   │ │ ├── co@4.6.0 </tspan>
<tspan x="10" y="1162">  │   │ │ └─┬ json-stable-stringify@1.0.1 </tspan>
<tspan x="10" y="1178">  │   │ │   └── jsonify@0.0.0 </tspan>
<tspan x="10" y="1194">  │   │ └── har-schema@1.0.5 </tspan>
<tspan x="10" y="1210">  │   ├─┬ hawk@3.1.3 </tspan>
<tspan x="10" y="1226">  │   │ ├── boom@2.10.1 </tspan>
<tspan x="10" y="1242">  │   │ ├── cryptiles@2.0.5 </tspan>
<tspan x="10" y="1258">  │   │ ├── hoek@2.16.3 </tspan>
<tspan x="10" y="1274">  │   │ └── sntp@1.0.9 </tspan>
<tspan x="10" y="1290">  │   ├─┬ http-signature@1.1.1 </tspan>
<tspan x="10" y="1306">  │   │ ├── assert-plus@0.2.0 </tspan>
<tspan x="10" y="1322">  │   │ ├─┬ jsprim@1.4.0 </tspan>
<tspan x="10" y="1338">  │   │ │ ├── assert-plus@1.0.0 </tspan>
<tspan x="10" y="1354">  │   │ │ ├── extsprintf@1.0.2 </tspan>
<tspan x="10" y="1370">  │   │ │ ├── json-schema@0.2.3 </tspan>
<tspan x="10" y="1386">  │   │ │ └── verror@1.3.6 </tspan>
<tspan x="10" y="1402">  │   │ └─┬ sshpk@1.13.0 </tspan>
<tspan x="10" y="1418">  │   │   ├── asn1@0.2.3 </tspan>
<tspan x="10" y="1434">  │   │   ├── assert-plus@1.0.0 </tspan>
<tspan x="10" y="1450">  │   │   ├── bcrypt-pbkdf@1.0.1 </tspan>
<tspan x="10" y="1466">  │   │   ├─┬ dashdash@1.14.1 </tspan>
<tspan x="10" y="1482">  │   │   │ └── assert-plus@1.0.0 </tspan>
<tspan x="10" y="1498">  │   │   ├── ecc-jsbn@0.1.1 </tspan>
<tspan x="10" y="1514">  │   │   ├─┬ getpass@0.1.6 </tspan>
<tspan x="10" y="1530">  │   │   │ └── assert-plus@1.0.0 </tspan>
<tspan x="10" y="1546">  │   │   ├── jodid25519@1.0.2 </tspan>
<tspan x="10" y="1562">  │   │   ├── jsbn@0.1.1 </tspan>
<tspan x="10" y="1578">  │   │   └── tweetnacl@0.14.5 </tspan>
<tspan x="10" y="1594">  │   ├── is-typedarray@1.0.0 </tspan>
<tspan x="10" y="1610">  │   ├── json-stringify-safe@5.0.1 </tspan>
<tspan x="10" y="1626">  │   ├── oauth-sign@0.8.2 </tspan>
<tspan x="10" y="1642">  │   ├── performance-now@0.2.0 </tspan>
<tspan x="10" y="1658">  │   ├── qs@6.4.0 </tspan>
<tspan x="10" y="1674">  │   ├── safe-buffer@5.0.1 </tspan>
<tspan x="10" y="1690">  │   ├── stringstream@0.0.5 </tspan>
<tspan x="10" y="1706">  │   ├─┬ tough-cookie@2.3.2 </tspan>
<tspan x="10" y="1722">  │   │ └── punycode@1.4.1 </tspan>
<tspan x="10" y="1738">  │   ├── tunnel-agent@0.6.0 </tspan>
<tspan x="10" y="1754">  │   └── uuid@3.0.1 </tspan>
<tspan x="10" y="1770">  ├─┬ http-proxy@1.11.3 </tspan>
<tspan x="10" y="1786">  │ ├── eventemitter3@1.2.0 </tspan>
<tspan x="10" y="1802">  │ └── requires-port@0.0.1 </tspan>
<tspan x="10" y="1818">  ├─┬ jade@1.9.2 </tspan>
<tspan x="10" y="1834">  │ ├── character-parser@1.2.1 </tspan>
<tspan x="10" y="1850">  │ ├── commander@2.6.0 </tspan>
<tspan x="10" y="1866">  │ ├─┬ constantinople@3.0.2 </tspan>
<tspan x="10" y="1882">  │ │ └── acorn@2.7.0 </tspan>
<tspan x="10" y="1898">  │ ├─┬ mkdirp@0.5.1 </tspan>
<tspan x="10" y="1914">  │ │ └── minimist@0.0.8 </tspan>
<tspan x="10" y="1930">  │ ├─┬ transformers@2.1.0 </tspan>
<tspan x="10" y="1946">  │ │ ├─┬ css@1.0.8 </tspan>
<tspan x="10" y="1962">  │ │ │ ├── css-parse@1.0.4 </tspan>
<tspan x="10" y="1978">  │ │ │ └── css-stringify@1.0.5 </tspan>
<tspan x="10" y="1994">  │ │ ├─┬ promise@2.0.0 </tspan>
<tspan x="10" y="2010">  │ │ │ └── is-promise@1.0.1 </tspan>
<tspan x="10" y="2026">  │ │ └─┬ uglify-js@2.2.5 </tspan>
<tspan x="10" y="2042">  │ │   └─┬ optimist@0.3.7 </tspan>
<tspan x="10" y="2058">  │ │     └── wordwrap@0.0.3 </tspan>
<tspan x="10" y="2074">  │ ├── void-elements@2.0.1 </tspan>
<tspan x="10" y="2090">  │ └─┬ with@4.0.3 </tspan>
<tspan x="10" y="2106">  │   ├── acorn@1.2.2 </tspan>
<tspan x="10" y="2122">  │   └── acorn-globals@1.0.9 </tspan>
<tspan x="10" y="2138">  ├── json@9.0.6 </tspan>
<tspan x="10" y="2154">  ├─┬ method-override@2.3.4 </tspan>
<tspan x="10" y="2170">  │ └── vary@1.0.1 </tspan>
<tspan x="10" y="2186">  ├── minimist@1.2.0 </tspan>
<tspan x="10" y="2202">  ├─┬ multer@0.1.8 </tspan>
<tspan x="10" y="2218">  │ ├─┬ busboy@0.2.14 </tspan>
<tspan x="10" y="2234">  │ │ ├─┬ dicer@0.2.5 </tspan>
<tspan x="10" y="2250">  │ │ │ └── streamsearch@0.1.2 </tspan>
<tspan x="10" y="2266">  │ │ └─┬ readable-stream@1.1.14 </tspan>
<tspan x="10" y="2282">  │ │   ├── core-util-is@1.0.2 </tspan>
<tspan x="10" y="2298">  │ │   └── string_decoder@0.10.31 </tspan>
<tspan x="10" y="2314">  │ ├── mkdirp@0.3.5 </tspan>
<tspan x="10" y="2330">  │ ├── qs@1.2.2 </tspan>
<tspan x="10" y="2346">  │ └─┬ type-is@1.5.7 </tspan>
<tspan x="10" y="2362">  │   └─┬ mime-types@2.0.14 </tspan>
<tspan x="10" y="2378">  │     └── mime-db@1.12.0 </tspan>
<tspan x="10" y="2394">  ├─┬ pageres@4.4.0 </tspan>
<tspan x="10" y="2410">  │ ├── array-differ@1.0.0 </tspan>
<tspan x="10" y="2426">  │ ├── array-uniq@1.0.3 </tspan>
<tspan x="10" y="2442">  │ ├─┬ babel-runtime@6.23.0 </tspan>
<tspan x="10" y="2458">  │ │ ├── core-js@2.4.1 </tspan>
<tspan x="10" y="2474">  │ │ └── regenerator-runtime@0.10.3 </tspan>
<tspan x="10" y="2490">  │ ├─┬ easydate@2.2.1 </tspan>
<tspan x="10" y="2506">  │ │ └─┬ mocha@3.3.0 </tspan>
<tspan x="10" y="2522">  │ │   ├── browser-stdout@1.3.0 </tspan>
<tspan x="10" y="2538">  │ │   ├─┬ commander@2.9.0 </tspan>
<tspan x="10" y="2554">  │ │   │ └── graceful-readlink@1.0.1 </tspan>
<tspan x="10" y="2570">  │ │   ├─┬ debug@2.6.0 </tspan>
<tspan x="10" y="2586">  │ │   │ └── ms@0.7.2 </tspan>
<tspan x="10" y="2602">  │ │   ├── diff@3.2.0 </tspan>
<tspan x="10" y="2618">  │ │   ├── escape-string-regexp@1.0.5 </tspan>
<tspan x="10" y="2634">  │ │   ├── growl@1.9.2 </tspan>
<tspan x="10" y="2650">  │ │   ├─┬ lodash.create@3.1.1 </tspan>
<tspan x="10" y="2666">  │ │   │ ├─┬ lodash._baseassign@3.2.0 </tspan>
<tspan x="10" y="2682">  │ │   │ │ ├── lodash._basecopy@3.0.1 </tspan>
<tspan x="10" y="2698">  │ │   │ │ └─┬ lodash.keys@3.1.2 </tspan>
<tspan x="10" y="2714">  │ │   │ │   ├── lodash._getnative@3.9.1 </tspan>
<tspan x="10" y="2730">  │ │   │ │   ├── lodash.isarguments@3.1.0 </tspan>
<tspan x="10" y="2746">  │ │   │ │   └── lodash.isarray@3.0.4 </tspan>
<tspan x="10" y="2762">  │ │   │ ├── lodash._basecreate@3.0.3 </tspan>
<tspan x="10" y="2778">  │ │   │ └── lodash._isiterateecall@3.0.9 </tspan>
<tspan x="10" y="2794">  │ │   └─┬ supports-color@3.1.2 </tspan>
<tspan x="10" y="2810">  │ │     └── has-flag@1.0.0 </tspan>
<tspan x="10" y="2826">  │ ├─┬ filenamify@2.0.0 </tspan>
<tspan x="10" y="2842">  │ │ ├── filename-reserved-regex@2.0.0 </tspan>
<tspan x="10" y="2858">  │ │ ├── strip-outer@1.0.0 </tspan>
<tspan x="10" y="2874">  │ │ └── trim-repeated@1.0.0 </tspan>
<tspan x="10" y="2890">  │ ├─┬ filenamify-url@1.0.0 </tspan>
<tspan x="10" y="2906">  │ │ ├─┬ filenamify@1.2.1 </tspan>
<tspan x="10" y="2922">  │ │ │ └── filename-reserved-regex@1.0.0 </tspan>
<tspan x="10" y="2938">  │ │ └─┬ humanize-url@1.0.1 </tspan>
<tspan x="10" y="2954">  │ │   ├─┬ normalize-url@1.9.1 </tspan>
<tspan x="10" y="2970">  │ │   │ ├─┬ query-string@4.3.4 </tspan>
<tspan x="10" y="2986">  │ │   │ │ └── strict-uri-encode@1.1.0 </tspan>
<tspan x="10" y="3002">  │ │   │ └─┬ sort-keys@1.1.2 </tspan>
<tspan x="10" y="3018">  │ │   │   └── is-plain-obj@1.1.0 </tspan>
<tspan x="10" y="3034">  │ │   └── strip-url-auth@1.0.1 </tspan>
<tspan x="10" y="3050">  │ ├─┬ fs-write-stream-atomic@1.0.10 </tspan>
<tspan x="10" y="3066">  │ │ ├── graceful-fs@4.1.11 </tspan>
<tspan x="10" y="3082">  │ │ ├── iferr@0.1.5 </tspan>
<tspan x="10" y="3098">  │ │ └── imurmurhash@0.1.4 </tspan>
<tspan x="10" y="3114">  │ ├─┬ get-res@3.0.0 </tspan>
<tspan x="10" y="3130">  │ │ ├─┬ meow@3.7.0 </tspan>
<tspan x="10" y="3146">  │ │ │ ├─┬ camelcase-keys@2.1.0 </tspan>
<tspan x="10" y="3162">  │ │ │ │ └── camelcase@2.1.1 </tspan>
<tspan x="10" y="3178">  │ │ │ ├── decamelize@1.2.0 </tspan>
<tspan x="10" y="3194">  │ │ │ ├─┬ loud-rejection@1.6.0 </tspan>
<tspan x="10" y="3210">  │ │ │ │ ├─┬ currently-unhandled@0.4.1 </tspan>
<tspan x="10" y="3226">  │ │ │ │ │ └── array-find-index@1.0.2 </tspan>
<tspan x="10" y="3242">  │ │ │ │ └── signal-exit@3.0.2 </tspan>
<tspan x="10" y="3258">  │ │ │ ├── map-obj@1.0.1 </tspan>
<tspan x="10" y="3274">  │ │ │ ├─┬ normalize-package-data@2.3.8 </tspan>
<tspan x="10" y="3290">  │ │ │ │ ├── hosted-git-info@2.4.2 </tspan>
<tspan x="10" y="3306">  │ │ │ │ ├─┬ is-builtin-module@1.0.0 </tspan>
<tspan x="10" y="3322">  │ │ │ │ │ └── builtin-modules@1.1.1 </tspan>
<tspan x="10" y="3338">  │ │ │ │ ├── semver@5.3.0 </tspan>
<tspan x="10" y="3354">  │ │ │ │ └─┬ validate-npm-package-license@3.0.1 </tspan>
<tspan x="10" y="3370">  │ │ │ │   ├─┬ spdx-correct@1.0.2 </tspan>
<tspan x="10" y="3386">  │ │ │ │   │ └── spdx-license-ids@1.2.2 </tspan>
<tspan x="10" y="3402">  │ │ │ │   └── spdx-expression-parse@1.0.4 </tspan>
<tspan x="10" y="3418">  │ │ │ ├─┬ read-pkg-up@1.0.1 </tspan>
<tspan x="10" y="3434">  │ │ │ │ ├─┬ find-up@1.1.2 </tspan>
<tspan x="10" y="3450">  │ │ │ │ │ └── path-exists@2.1.0 </tspan>
<tspan x="10" y="3466">  │ │ │ │ └─┬ read-pkg@1.1.0 </tspan>
<tspan x="10" y="3482">  │ │ │ │   ├─┬ load-json-file@1.1.0 </tspan>
<tspan x="10" y="3498">  │ │ │ │   │ ├─┬ parse-json@2.2.0 </tspan>
<tspan x="10" y="3514">  │ │ │ │   │ │ └─┬ error-ex@1.3.1 </tspan>
<tspan x="10" y="3530">  │ │ │ │   │ │   └── is-arrayish@0.2.1 </tspan>
<tspan x="10" y="3546">  │ │ │ │   │ └─┬ strip-bom@2.0.0 </tspan>
<tspan x="10" y="3562">  │ │ │ │   │   └── is-utf8@0.2.1 </tspan>
<tspan x="10" y="3578">  │ │ │ │   └── path-type@1.1.0 </tspan>
<tspan x="10" y="3594">  │ │ │ ├─┬ redent@1.0.0 </tspan>
<tspan x="10" y="3610">  │ │ │ │ ├─┬ indent-string@2.1.0 </tspan>
<tspan x="10" y="3626">  │ │ │ │ │ └─┬ repeating@2.0.1 </tspan>
<tspan x="10" y="3642">  │ │ │ │ │   └─┬ is-finite@1.0.2 </tspan>
<tspan x="10" y="3658">  │ │ │ │ │     └── number-is-nan@1.0.1 </tspan>
<tspan x="10" y="3674">  │ │ │ │ └─┬ strip-indent@1.0.1 </tspan>
<tspan x="10" y="3690">  │ │ │ │   └── get-stdin@4.0.1 </tspan>
<tspan x="10" y="3706">  │ │ │ └── trim-newlines@1.0.0 </tspan>
<tspan x="10" y="3722">  │ │ └─┬ w3counter@3.0.1 </tspan>
<tspan x="10" y="3738">  │ │   ├─┬ cheerio@0.19.0 </tspan>
<tspan x="10" y="3754">  │ │   │ ├─┬ css-select@1.0.0 </tspan>
<tspan x="10" y="3770">  │ │   │ │ ├── boolbase@1.0.0 </tspan>
<tspan x="10" y="3786">  │ │   │ │ ├── css-what@1.0.0 </tspan>
<tspan x="10" y="3802">  │ │   │ │ ├── domutils@1.4.3 </tspan>
<tspan x="10" y="3818">  │ │   │ │ └── nth-check@1.0.1 </tspan>
<tspan x="10" y="3834">  │ │   │ ├─┬ dom-serializer@0.1.0 </tspan>
<tspan x="10" y="3850">  │ │   │ │ └── domelementtype@1.1.3 </tspan>
<tspan x="10" y="3866">  │ │   │ ├── entities@1.1.1 </tspan>
<tspan x="10" y="3882">  │ │   │ ├─┬ htmlparser2@3.8.3 </tspan>
<tspan x="10" y="3898">  │ │   │ │ ├── domelementtype@1.3.0 </tspan>
<tspan x="10" y="3914">  │ │   │ │ ├── domhandler@2.3.0 </tspan>
<tspan x="10" y="3930">  │ │   │ │ ├── domutils@1.5.1 </tspan>
<tspan x="10" y="3946">  │ │   │ │ └── entities@1.0.0 </tspan>
<tspan x="10" y="3962">  │ │   │ └── lodash@3.10.1 </tspan>
<tspan x="10" y="3978">  │ │   └─┬ got@6.7.1 </tspan>
<tspan x="10" y="3994">  │ │     ├─┬ create-error-class@3.0.2 </tspan>
<tspan x="10" y="4010">  │ │     │ └── capture-stack-trace@1.0.0 </tspan>
<tspan x="10" y="4026">  │ │     ├── duplexer3@0.1.4 </tspan>
<tspan x="10" y="4042">  │ │     ├── get-stream@3.0.0 </tspan>
<tspan x="10" y="4058">  │ │     ├── is-redirect@1.0.0 </tspan>
<tspan x="10" y="4074">  │ │     ├── is-retry-allowed@1.1.0 </tspan>
<tspan x="10" y="4090">  │ │     ├── is-stream@1.1.0 </tspan>
<tspan x="10" y="4106">  │ │     ├── lowercase-keys@1.0.0 </tspan>
<tspan x="10" y="4122">  │ │     ├── timed-out@4.0.1 </tspan>
<tspan x="10" y="4138">  │ │     ├── unzip-response@2.0.1 </tspan>
<tspan x="10" y="4154">  │ │     └── url-parse-lax@1.0.0 </tspan>
<tspan x="10" y="4170">  │ ├─┬ lodash.template@4.4.0 </tspan>
<tspan x="10" y="4186">  │ │ ├── lodash._reinterpolate@3.0.0 </tspan>
<tspan x="10" y="4202">  │ │ └── lodash.templatesettings@4.1.0 </tspan>
<tspan x="10" y="4218">  │ ├─┬ log-symbols@1.0.2 </tspan>
<tspan x="10" y="4234">  │ │ └─┬ chalk@1.1.3 </tspan>
<tspan x="10" y="4250">  │ │   ├── ansi-styles@2.2.1 </tspan>
<tspan x="10" y="4266">  │ │   ├─┬ has-ansi@2.0.0 </tspan>
<tspan x="10" y="4282">  │ │   │ └── ansi-regex@2.1.1 </tspan>
<tspan x="10" y="4298">  │ │   ├── strip-ansi@3.0.1 </tspan>
<tspan x="10" y="4314">  │ │   └── supports-color@2.0.0 </tspan>
<tspan x="10" y="4330">  │ ├─┬ mem@1.1.0 </tspan>
<tspan x="10" y="4346">  │ │ └── mimic-fn@1.1.0 </tspan>
<tspan x="10" y="4362">  │ ├── pify@2.3.0 </tspan>
<tspan x="10" y="4378">  │ ├─┬ plur@2.1.2 </tspan>
<tspan x="10" y="4394">  │ │ └── irregular-plurals@1.2.0 </tspan>
<tspan x="10" y="4410">  │ ├─┬ protocolify@2.0.0 </tspan>
<tspan x="10" y="4426">  │ │ ├── file-url@2.0.2 </tspan>
<tspan x="10" y="4442">  │ │ └── prepend-http@1.0.4 </tspan>
<tspan x="10" y="4458">  │ ├─┬ rimraf@2.6.1 </tspan>
<tspan x="10" y="4474">  │ │ └─┬ glob@7.1.1 </tspan>
<tspan x="10" y="4490">  │ │   ├── fs.realpath@1.0.0 </tspan>
<tspan x="10" y="4506">  │ │   ├─┬ inflight@1.0.6 </tspan>
<tspan x="10" y="4522">  │ │   │ └── wrappy@1.0.2 </tspan>
<tspan x="10" y="4538">  │ │   ├─┬ minimatch@3.0.3 </tspan>
<tspan x="10" y="4554">  │ │   │ └─┬ brace-expansion@1.1.7 </tspan>
<tspan x="10" y="4570">  │ │   │   ├── balanced-match@0.4.2 </tspan>
<tspan x="10" y="4586">  │ │   │   └── concat-map@0.0.1 </tspan>
<tspan x="10" y="4602">  │ │   ├── once@1.4.0 </tspan>
<tspan x="10" y="4618">  │ │   └── path-is-absolute@1.0.1 </tspan>
<tspan x="10" y="4634">  │ ├─┬ screenshot-stream@4.1.0 </tspan>
<tspan x="10" y="4650">  │ │ ├─┬ base64-stream@0.1.3 </tspan>
<tspan x="10" y="4666">  │ │ │ └─┬ readable-stream@2.2.9 </tspan>
<tspan x="10" y="4682">  │ │ │   ├── buffer-shims@1.0.0 </tspan>
<tspan x="10" y="4698">  │ │ │   ├── isarray@1.0.0 </tspan>
<tspan x="10" y="4714">  │ │ │   └── string_decoder@1.0.0 </tspan>
<tspan x="10" y="4730">  │ │ ├── byline@4.2.2 </tspan>
<tspan x="10" y="4746">  │ │ ├── parse-cookie-phantomjs@1.2.0 </tspan>
<tspan x="10" y="4762">  │ │ └─┬ phantom-bridge@2.0.1 </tspan>
<tspan x="10" y="4778">  │ │   └─┬ phantomjs-prebuilt@2.1.14 </tspan>
<tspan x="10" y="4794">  │ │     ├── es6-promise@4.0.5 </tspan>
<tspan x="10" y="4810">  │ │     ├─┬ extract-zip@1.5.0 </tspan>
<tspan x="10" y="4826">  │ │     │ ├─┬ concat-stream@1.5.0 </tspan>
<tspan x="10" y="4842">  │ │     │ │ ├─┬ readable-stream@2.0.6 </tspan>
<tspan x="10" y="4858">  │ │     │ │ │ └── isarray@1.0.0 </tspan>
<tspan x="10" y="4874">  │ │     │ │ └── typedarray@0.0.6 </tspan>
<tspan x="10" y="4890">  │ │     │ ├── debug@0.7.4 </tspan>
<tspan x="10" y="4906">  │ │     │ ├─┬ mkdirp@0.5.0 </tspan>
<tspan x="10" y="4922">  │ │     │ │ └── minimist@0.0.8 </tspan>
<tspan x="10" y="4938">  │ │     │ └─┬ yauzl@2.4.1 </tspan>
<tspan x="10" y="4954">  │ │     │   └─┬ fd-slicer@1.0.1 </tspan>
<tspan x="10" y="4970">  │ │     │     └── pend@1.2.0 </tspan>
<tspan x="10" y="4986">  │ │     ├─┬ fs-extra@1.0.0 </tspan>
<tspan x="10" y="5002">  │ │     │ ├── jsonfile@2.4.0 </tspan>
<tspan x="10" y="5018">  │ │     │ └── klaw@1.3.1 </tspan>
<tspan x="10" y="5034">  │ │     ├── hasha@2.2.0 </tspan>
<tspan x="10" y="5050">  │ │     ├── kew@0.7.0 </tspan>
<tspan x="10" y="5066">  │ │     ├── progress@1.1.8 </tspan>
<tspan x="10" y="5082">  │ │     ├─┬ request@2.79.0 </tspan>
<tspan x="10" y="5098">  │ │     │ ├── caseless@0.11.0 </tspan>
<tspan x="10" y="5114">  │ │     │ ├─┬ har-validator@2.0.6 </tspan>
<tspan x="10" y="5130">  │ │     │ │ └── commander@2.9.0 </tspan>
<tspan x="10" y="5146">  │ │     │ ├── qs@6.3.2 </tspan>
<tspan x="10" y="5162">  │ │     │ └── tunnel-agent@0.4.3 </tspan>
<tspan x="10" y="5178">  │ │     ├─┬ request-progress@2.0.1 </tspan>
<tspan x="10" y="5194">  │ │     │ └── throttleit@1.0.0 </tspan>
<tspan x="10" y="5210">  │ │     └─┬ which@1.2.14 </tspan>
<tspan x="10" y="5226">  │ │       └── isexe@2.0.0 </tspan>
<tspan x="10" y="5242">  │ ├─┬ unused-filename@0.1.0 </tspan>
<tspan x="10" y="5258">  │ │ ├── modify-filename@1.1.0 </tspan>
<tspan x="10" y="5274">  │ │ └── path-exists@3.0.0 </tspan>
<tspan x="10" y="5290">  │ └── viewport-list@5.1.1 </tspan>
<tspan x="10" y="5306">  ├─┬ passport@0.2.2 </tspan>
<tspan x="10" y="5322">  │ ├── passport-strategy@1.0.0 </tspan>
<tspan x="10" y="5338">  │ └── pause@0.0.1 </tspan>
<tspan x="10" y="5354">  ├── passport-local@1.0.0 </tspan>
<tspan x="10" y="5370">  ├─┬ passport-twitter@1.0.4 </tspan>
<tspan x="10" y="5386">  │ ├─┬ passport-oauth1@1.1.0 </tspan>
<tspan x="10" y="5402">  │ │ └── oauth@0.9.15 </tspan>
<tspan x="10" y="5418">  │ └─┬ xtraverse@0.1.0 </tspan>
<tspan x="10" y="5434">  │   └── xmldom@0.1.27 </tspan>
<tspan x="10" y="5450">  ├─┬ socket.io@1.7.3 </tspan>
<tspan x="10" y="5466">  │ ├─┬ debug@2.3.3 </tspan>
<tspan x="10" y="5482">  │ │ └── ms@0.7.2 </tspan>
<tspan x="10" y="5498">  │ ├─┬ engine.io@1.8.3 </tspan>
<tspan x="10" y="5514">  │ │ ├─┬ accepts@1.3.3 </tspan>
<tspan x="10" y="5530">  │ │ │ └── negotiator@0.6.1 </tspan>
<tspan x="10" y="5546">  │ │ ├── base64id@1.0.0 </tspan>
<tspan x="10" y="5562">  │ │ ├── cookie@0.3.1 </tspan>
<tspan x="10" y="5578">  │ │ ├─┬ debug@2.3.3 </tspan>
<tspan x="10" y="5594">  │ │ │ └── ms@0.7.2 </tspan>
<tspan x="10" y="5610">  │ │ ├─┬ engine.io-parser@1.3.2 </tspan>
<tspan x="10" y="5626">  │ │ │ ├── after@0.8.2 </tspan>
<tspan x="10" y="5642">  │ │ │ ├── arraybuffer.slice@0.0.6 </tspan>
<tspan x="10" y="5658">  │ │ │ ├── base64-arraybuffer@0.1.5 </tspan>
<tspan x="10" y="5674">  │ │ │ ├── blob@0.0.4 </tspan>
<tspan x="10" y="5690">  │ │ │ └── wtf-8@1.0.0 </tspan>
<tspan x="10" y="5706">  │ │ └─┬ ws@1.1.2 </tspan>
<tspan x="10" y="5722">  │ │   ├── options@0.0.6 </tspan>
<tspan x="10" y="5738">  │ │   └── ultron@1.0.2 </tspan>
<tspan x="10" y="5754">  │ ├─┬ has-binary@0.1.7 </tspan>
<tspan x="10" y="5770">  │ │ └── isarray@0.0.1 </tspan>
<tspan x="10" y="5786">  │ ├── object-assign@4.1.0 </tspan>
<tspan x="10" y="5802">  │ ├─┬ socket.io-adapter@0.5.0 </tspan>
<tspan x="10" y="5818">  │ │ └─┬ debug@2.3.3 </tspan>
<tspan x="10" y="5834">  │ │   └── ms@0.7.2 </tspan>
<tspan x="10" y="5850">  │ ├─┬ socket.io-client@1.7.3 </tspan>
<tspan x="10" y="5866">  │ │ ├── backo2@1.0.2 </tspan>
<tspan x="10" y="5882">  │ │ ├── component-bind@1.0.0 </tspan>
<tspan x="10" y="5898">  │ │ ├── component-emitter@1.2.1 </tspan>
<tspan x="10" y="5914">  │ │ ├─┬ debug@2.3.3 </tspan>
<tspan x="10" y="5930">  │ │ │ └── ms@0.7.2 </tspan>
<tspan x="10" y="5946">  │ │ ├─┬ engine.io-client@1.8.3 </tspan>
<tspan x="10" y="5962">  │ │ │ ├── component-emitter@1.2.1 </tspan>
<tspan x="10" y="5978">  │ │ │ ├── component-inherit@0.0.3 </tspan>
<tspan x="10" y="5994">  │ │ │ ├─┬ debug@2.3.3 </tspan>
<tspan x="10" y="6010">  │ │ │ │ └── ms@0.7.2 </tspan>
<tspan x="10" y="6026">  │ │ │ ├── has-cors@1.1.0 </tspan>
<tspan x="10" y="6042">  │ │ │ ├── parsejson@0.0.3 </tspan>
<tspan x="10" y="6058">  │ │ │ ├── parseqs@0.0.5 </tspan>
<tspan x="10" y="6074">  │ │ │ ├── xmlhttprequest-ssl@1.5.3 </tspan>
<tspan x="10" y="6090">  │ │ │ └── yeast@0.1.2 </tspan>
<tspan x="10" y="6106">  │ │ ├── indexof@0.0.1 </tspan>
<tspan x="10" y="6122">  │ │ ├── object-component@0.0.3 </tspan>
<tspan x="10" y="6138">  │ │ ├─┬ parseuri@0.0.5 </tspan>
<tspan x="10" y="6154">  │ │ │ └─┬ better-assert@1.0.2 </tspan>
<tspan x="10" y="6170">  │ │ │   └── callsite@1.0.0 </tspan>
<tspan x="10" y="6186">  │ │ └── to-array@0.1.4 </tspan>
<tspan x="10" y="6202">  │ └─┬ socket.io-parser@2.3.1 </tspan>
<tspan x="10" y="6218">  │   ├── component-emitter@1.1.2 </tspan>
<tspan x="10" y="6234">  │   └── json3@3.3.2 </tspan>
<tspan x="10" y="6250">  ├─┬ stylus@0.50.0 </tspan>
<tspan x="10" y="6266">  │ ├── css-parse@1.7.0 </tspan>
<tspan x="10" y="6282">  │ ├─┬ glob@3.2.11 </tspan>
<tspan x="10" y="6298">  │ │ ├── inherits@2.0.3 </tspan>
<tspan x="10" y="6314">  │ │ └─┬ minimatch@0.3.0 </tspan>
<tspan x="10" y="6330">  │ │   ├── lru-cache@2.7.3 </tspan>
<tspan x="10" y="6346">  │ │   └── sigmund@1.0.1 </tspan>
<tspan x="10" y="6362">  │ ├── mkdirp@0.3.5 </tspan>
<tspan x="10" y="6378">  │ ├── sax@0.5.8 </tspan>
<tspan x="10" y="6394">  │ └─┬ source-map@0.1.43 </tspan>
<tspan x="10" y="6410">  │   └── amdefine@1.0.1 </tspan>
<tspan x="10" y="6426">  ├─┬ winston@1.0.2 </tspan>
<tspan x="10" y="6442">  │ ├── async@1.0.0 </tspan>
<tspan x="10" y="6458">  │ ├── colors@1.0.3 </tspan>
<tspan x="10" y="6474">  │ ├── cycle@1.0.3 </tspan>
<tspan x="10" y="6490">  │ ├── eyes@0.1.8 </tspan>
<tspan x="10" y="6506">  │ ├── isstream@0.1.2 </tspan>
<tspan x="10" y="6522">  │ ├── pkginfo@0.3.1 </tspan>
<tspan x="10" y="6538">  │ └── stack-trace@0.0.9 </tspan>
<tspan x="10" y="6554">  ├─┬ winston-azure@0.0.4 </tspan>
<tspan x="10" y="6570">  │ └─┬ azure-storage@2.1.0 </tspan>
<tspan x="10" y="6586">  │   ├── browserify-mime@1.2.9 </tspan>
<tspan x="10" y="6602">  │   ├── extend@1.2.1 </tspan>
<tspan x="10" y="6618">  │   ├─┬ json-edm-parser@0.1.2 </tspan>
<tspan x="10" y="6634">  │   │ └── jsonparse@1.2.0 </tspan>
<tspan x="10" y="6650">  │   ├─┬ md5.js@1.3.4 </tspan>
<tspan x="10" y="6666">  │   │ └── hash-base@3.0.3 </tspan>
<tspan x="10" y="6682">  │   ├── node-uuid@1.4.8 </tspan>
<tspan x="10" y="6698">  │   ├─┬ readable-stream@2.0.6 </tspan>
<tspan x="10" y="6714">  │   │ ├── isarray@1.0.0 </tspan>
<tspan x="10" y="6730">  │   │ ├── process-nextick-args@1.0.7 </tspan>
<tspan x="10" y="6746">  │   │ └── util-deprecate@1.0.2 </tspan>
<tspan x="10" y="6762">  │   ├─┬ request@2.74.0 </tspan>
<tspan x="10" y="6778">  │   │ ├─┬ bl@1.1.2 </tspan>
<tspan x="10" y="6794">  │   │ │ └─┬ readable-stream@2.0.6 </tspan>
<tspan x="10" y="6810">  │   │ │   └── isarray@1.0.0 </tspan>
<tspan x="10" y="6826">  │   │ ├── caseless@0.11.0 </tspan>
<tspan x="10" y="6842">  │   │ ├── extend@3.0.0 </tspan>
<tspan x="10" y="6858">  │   │ ├─┬ form-data@1.0.1 </tspan>
<tspan x="10" y="6874">  │   │ │ └─┬ async@2.3.0 </tspan>
<tspan x="10" y="6890">  │   │ │   └── lodash@4.17.4 </tspan>
<tspan x="10" y="6906">  │   │ ├─┬ har-validator@2.0.6 </tspan>
<tspan x="10" y="6922">  │   │ │ ├── commander@2.9.0 </tspan>
<tspan x="10" y="6938">  │   │ │ ├─┬ is-my-json-valid@2.16.0 </tspan>
<tspan x="10" y="6954">  │   │ │ │ ├── generate-function@2.0.0 </tspan>
<tspan x="10" y="6970">  │   │ │ │ ├─┬ generate-object-property@1.2.0 </tspan>
<tspan x="10" y="6986">  │   │ │ │ │ └── is-property@1.0.2 </tspan>
<tspan x="10" y="7002">  │   │ │ │ ├── jsonpointer@4.0.1 </tspan>
<tspan x="10" y="7018">  │   │ │ │ └── xtend@4.0.1 </tspan>
<tspan x="10" y="7034">  │   │ │ └─┬ pinkie-promise@2.0.1 </tspan>
<tspan x="10" y="7050">  │   │ │   └── pinkie@2.0.4 </tspan>
<tspan x="10" y="7066">  │   │ ├── qs@6.2.3 </tspan>
<tspan x="10" y="7082">  │   │ └── tunnel-agent@0.4.3 </tspan>
<tspan x="10" y="7098">  │   ├── underscore@1.4.4 </tspan>
<tspan x="10" y="7114">  │   ├── validator@3.22.2 </tspan>
<tspan x="10" y="7130">  │   ├─┬ xml2js@0.2.7 </tspan>
<tspan x="10" y="7146">  │   │ └── sax@0.5.2 </tspan>
<tspan x="10" y="7162">  │   └── xmlbuilder@0.4.3 </tspan>
<tspan x="10" y="7178">  ├─┬ winston-logs-display@0.1.1 </tspan>
<tspan x="10" y="7194">  │ └─┬ winston@0.8.3 </tspan>
<tspan x="10" y="7210">  │   ├── async@0.2.10 </tspan>
<tspan x="10" y="7226">  │   └── colors@0.6.2 </tspan>
<tspan x="10" y="7242">  └── xmlhttprequest@1.7.0</tspan>
</text>
</svg>
